<svg width="78" height="59" viewBox="0 0 78 59" fill="none" xmlns="http://www.w3.org/2000/svg">
<path opacity="0.4" fill-rule="evenodd" clip-rule="evenodd" d="M30.8359 43.8375C29.7784 44.3893 29.7206 44.5936 29.6265 48.1167C29.5338 51.5925 29.4348 52.0287 28.5246 52.9756C27.9089 53.6165 26.6888 54.1923 25.9427 54.1941C24.7464 54.1973 23.6666 55.0202 23.4647 56.0828C23.317 56.8598 23.7548 57.8686 24.4385 58.3273C25.446 59.0032 27.7814 58.7482 29.7108 57.7519C30.8341 57.1716 32.454 55.6073 33.1054 54.4737C33.9688 52.9708 34.1961 51.698 34.1961 48.3652C34.1961 45.7129 34.1663 45.3739 33.8829 44.7959C33.6555 44.3321 33.3924 44.0724 32.9226 43.8479C32.1272 43.4678 31.5501 43.465 30.8359 43.8375ZM37.9371 43.8788C36.7768 44.5355 36.7809 44.5103 36.7812 51.1162C36.7814 57.6468 36.7846 57.6686 37.8298 58.3578C38.9125 59.0718 40.4863 58.6535 41.076 57.4948C41.3156 57.0242 41.3419 56.392 41.342 51.1162C41.3423 45.7016 41.3211 45.2207 41.0605 44.7371C40.7179 44.1016 39.7834 43.5436 39.0616 43.5436C38.769 43.5436 38.2629 43.6945 37.9371 43.8788ZM45.1893 43.8509C44.7333 44.0736 44.4616 44.3447 44.239 44.7988C43.9572 45.3733 43.9271 45.7172 43.9271 48.3652C43.9271 51.698 44.1545 52.9708 45.0179 54.4737C45.6693 55.6073 47.2892 57.1716 48.4125 57.7519C50.3418 58.7482 52.6773 59.0032 53.6847 58.3273C54.3685 57.8686 54.8062 56.8598 54.6586 56.0828C54.4567 55.0202 53.3769 54.1973 52.1806 54.1941C51.4345 54.1923 50.2144 53.6165 49.5986 52.9756C48.6885 52.0287 48.5895 51.5925 48.4968 48.1167C48.4022 44.5753 48.3453 44.3794 47.255 43.8302C46.5135 43.4567 45.9849 43.4621 45.1893 43.8509Z" fill="black"/>
<path fill-rule="evenodd" clip-rule="evenodd" d="M7.61422 0.378221C7.16887 0.48464 6.21858 0.858233 5.50244 1.20856C3.23041 2.32003 1.5103 4.30973 0.570347 6.91362L0.218206 7.88925L0.171984 20.1417C0.119832 33.9306 0.0994577 33.6245 1.22202 35.8824C2.40205 38.2559 4.78235 40.1881 7.43556 40.9262C7.93093 41.0639 9.21694 41.1929 10.5905 41.2424L12.9092 41.3262L12.9115 38.0414C12.9141 34.3001 13.0484 33.468 13.9386 31.6797C14.759 30.0315 16.5049 28.3298 18.2309 27.4957C20.5306 26.3844 19.6083 26.4315 39.0613 26.4315C58.5143 26.4315 57.592 26.3844 59.8917 27.4957C61.6177 28.3298 63.3635 30.0315 64.184 31.6797C65.0742 33.468 65.2085 34.3001 65.2111 38.0414L65.2133 41.3262L67.5321 41.2424C68.9057 41.1929 70.1917 41.0639 70.687 40.9262C73.3402 40.1881 75.7205 38.2559 76.9006 35.8824C78.0231 33.6245 78.0028 33.9306 77.9506 20.1417L77.9044 7.88925L77.5522 6.91362C76.5848 4.23348 74.872 2.28701 72.4864 1.15708C71.7057 0.787238 70.7045 0.411542 70.2615 0.321934C68.9958 0.0663183 8.69314 0.120503 7.61422 0.378221ZM55.5765 9.09934C56.6622 9.90071 56.9651 11.0569 56.3606 12.092C55.7761 13.0928 55.3045 13.2354 52.7455 13.1856C50.8177 13.1481 50.4902 13.105 50.1373 12.8425C49.0575 12.0393 48.8817 10.6071 49.7319 9.54002C50.3006 8.82631 50.7894 8.71118 53.0771 8.75246C54.9058 8.78533 55.2079 8.82721 55.5765 9.09934ZM66.4267 8.97776C66.7177 9.122 67.1171 9.47653 67.3145 9.76547C67.8035 10.4819 67.7355 11.8178 67.1804 12.4043C66.4921 13.1317 66.1427 13.2177 63.875 13.2177C61.9305 13.2177 61.7199 13.1904 61.2446 12.877C59.7863 11.9153 59.9147 9.78108 61.4766 9.01783C62.3325 8.59966 65.6108 8.57309 66.4267 8.97776ZM21.5928 31.0915C20.1067 31.3797 18.5266 32.6199 17.8971 33.9924C17.5718 34.7019 17.5432 34.9906 17.498 38.0213L17.4494 41.2859H39.0613H60.6732L60.6246 38.0213C60.5794 34.9906 60.5508 34.7019 60.2255 33.9924C59.8245 33.1181 58.7316 31.9987 57.8354 31.5446C57.499 31.3741 56.8569 31.1658 56.4083 31.0819C55.3993 30.893 22.5698 30.902 21.5928 31.0915Z" fill="black"/>
</svg>
