<svg width="21" height="25" viewBox="0 0 21 25" fill="none" xmlns="http://www.w3.org/2000/svg">
<path d="M17.3491 12.8519C17.3717 15.2128 18.7441 16.5568 19.724 17.2171C20.2451 17.5683 20.5573 18.188 20.3145 18.7564C20.0384 19.4025 19.6017 20.2832 18.9696 21.1789C17.9306 22.6511 16.8524 24.1179 15.1538 24.1482C13.4848 24.178 12.9481 23.1887 11.0399 23.1887C9.13228 23.1887 8.536 24.1179 6.95607 24.1781C5.3165 24.2383 4.06794 22.5862 3.02042 21.1193C0.879859 18.1189 -0.755974 12.6409 1.44054 8.94319C2.53171 7.10688 4.48173 5.94405 6.59831 5.91423C8.20832 5.88445 9.72794 6.96439 10.7122 6.96439C11.6959 6.96439 13.5425 5.66567 15.4839 5.85641C16.1512 5.88333 17.8085 6.0806 19.191 7.3009C19.7161 7.76433 19.5291 8.55193 19.0227 9.03449C18.2525 9.76842 17.3322 11.0275 17.3491 12.8519ZM14.2123 3.87139C14.8509 3.12199 15.3363 2.15705 15.4865 1.13748C15.5791 0.508805 14.9924 0.0265111 14.3701 0.224847C13.4245 0.526256 12.4754 1.12008 11.837 1.84439C11.2191 2.53701 10.66 3.5483 10.5179 4.60708C10.442 5.17275 10.9423 5.63223 11.5176 5.51231C12.5661 5.29372 13.5505 4.64853 14.2123 3.87139Z" fill="#1A1D1F"/>
</svg>
