<svg width="27" height="27" viewBox="0 0 27 27" fill="none" xmlns="http://www.w3.org/2000/svg">
<g clip-path="url(#clip0_52_1388)">
<path d="M16.4588 11.7398C16.0867 11.3673 15.4834 11.3673 15.1113 11.7398L12.641 14.2129L11.9673 13.5384C11.5953 13.1659 10.992 13.1659 10.6199 13.5384C10.2478 13.9109 10.2478 14.5149 10.6199 14.8874L11.9673 16.2364C12.3394 16.6089 12.9426 16.6089 13.3148 16.2364L16.4588 13.0888C16.8308 12.7163 16.8308 12.1123 16.4588 11.7398Z" fill="#137A23"/>
<path d="M13.5394 0.108886C6.17072 0.108886 0.19726 6.08922 0.197254 13.4664C0.197247 20.8435 6.1707 26.8238 13.5393 26.8238C20.908 26.8238 26.8815 20.8435 26.8815 13.4664C26.8815 6.08922 20.908 0.108886 13.5394 0.108886ZM20.5263 15.7484C20.5263 16.9608 19.9509 18.101 18.976 18.8201L15.2591 21.562C14.7609 21.9296 14.1582 22.1278 13.5394 22.1278C12.9205 22.1278 12.3178 21.9296 11.8195 21.562L8.10266 18.8201C7.1278 18.101 6.55231 16.9608 6.55232 15.7484L6.55232 9.15434C6.55232 8.32206 7.09127 7.58578 7.88403 7.33517L11.678 6.13571C12.2802 5.94532 12.9079 5.84842 13.5394 5.84842C14.1708 5.84842 14.7985 5.94532 15.4007 6.13566L19.1946 7.33512C19.9874 7.58573 20.5264 8.32201 20.5264 9.15429L20.5263 15.7484Z" fill="#137A23"/>
</g>
<defs>
<clipPath id="clip0_52_1388">
<rect width="26.6842" height="26.7149" fill="white" transform="translate(0.197266 0.108887)"/>
</clipPath>
</defs>
</svg>
