<svg width="21" height="16" viewBox="0 0 21 16" fill="none" xmlns="http://www.w3.org/2000/svg">
<path fill-rule="evenodd" clip-rule="evenodd" d="M20.5748 7.9999C20.5748 8.30821 20.4523 8.6039 20.2343 8.82191C20.0163 9.03992 19.7206 9.1624 19.4123 9.1624H4.39276L8.60876 13.3784C8.8141 13.5988 8.92589 13.8902 8.92058 14.1914C8.91527 14.4926 8.79326 14.7799 8.58027 14.9929C8.36728 15.2059 8.07993 15.3279 7.77877 15.3332C7.4776 15.3385 7.18613 15.2267 6.96576 15.0214L0.765758 8.8214C0.54806 8.60343 0.425781 8.30796 0.425781 7.9999C0.425781 7.69183 0.54806 7.39637 0.765758 7.1784L6.96576 0.978396C7.07218 0.864181 7.20053 0.772573 7.34312 0.709035C7.48572 0.645498 7.63966 0.611333 7.79575 0.608579C7.95184 0.605825 8.10688 0.634538 8.25164 0.693006C8.39639 0.751473 8.52788 0.838497 8.63827 0.948886C8.74866 1.05928 8.83568 1.19077 8.89415 1.33552C8.95262 1.48027 8.98133 1.63532 8.97858 1.79141C8.97582 1.9475 8.94166 2.10143 8.87812 2.24403C8.81458 2.38663 8.72297 2.51497 8.60876 2.6214L4.39276 6.8374H19.4123C19.7206 6.8374 20.0163 6.95987 20.2343 7.17789C20.4523 7.3959 20.5748 7.69158 20.5748 7.9999Z" fill="#241353"/>
</svg>
