<svg width="19" height="19" viewBox="0 0 19 19" fill="none" xmlns="http://www.w3.org/2000/svg">
<path d="M17.3616 12.7316C16.1316 12.7316 14.9416 12.5316 13.8316 12.1716C13.6577 12.1126 13.4707 12.1039 13.292 12.1463C13.1134 12.1888 12.9504 12.2807 12.8216 12.4116L11.2516 14.3816C8.42156 13.0316 5.77156 10.4816 4.36156 7.55156L6.31156 5.89156C6.58156 5.61156 6.66156 5.22156 6.55156 4.87156C6.18156 3.76156 5.99156 2.57156 5.99156 1.34156C5.99156 0.801562 5.54156 0.351563 5.00156 0.351563H1.54156C1.00156 0.351562 0.351562 0.591563 0.351562 1.34156C0.351562 10.6316 8.08156 18.3516 17.3616 18.3516C18.0716 18.3516 18.3516 17.7216 18.3516 17.1716V13.7216C18.3516 13.1816 17.9016 12.7316 17.3616 12.7316Z" fill="#241353"/>
</svg>
