<svg width="20" height="18" viewBox="0 0 20 18" fill="none" xmlns="http://www.w3.org/2000/svg">
<path fill-rule="evenodd" clip-rule="evenodd" d="M7.76148 3.10039C6.45049 1.67946 4.36185 1.67946 3.05221 3.10039C1.69778 4.56745 1.69778 6.97773 3.05221 8.44616L9.83926 15.8019L16.6277 8.44616C17.9807 6.97773 17.9807 4.56745 16.6277 3.10039C15.3167 1.67946 13.228 1.67946 11.9184 3.10039L10.5884 4.54167C10.4931 4.64509 10.3774 4.72764 10.2485 4.7841C10.1197 4.84057 9.98059 4.86972 9.83994 4.86972C9.69929 4.86972 9.56017 4.84057 9.43134 4.7841C9.30252 4.72764 9.1868 4.64509 9.09148 4.54167L7.76148 3.10039ZM1.55528 1.72017C3.67242 -0.573392 7.13991 -0.573392 9.25705 1.72017L9.83926 2.34989L10.4215 1.72017C12.5386 -0.573392 16.0061 -0.573392 18.1232 1.72017C20.197 3.9676 20.197 7.57895 18.1232 9.82637L11.0865 17.4535C10.9276 17.6258 10.7348 17.7633 10.5201 17.8574C10.3054 17.9514 10.0736 18 9.83926 18C9.6049 18 9.37308 17.9514 9.15842 17.8574C8.94376 17.7633 8.75092 17.6258 8.59205 17.4535L1.55528 9.82637C-0.518427 7.57895 -0.518427 3.9676 1.55528 1.72017Z" fill="#241353"/>
</svg>
