<svg width="41" height="41" viewBox="0 0 41 41" fill="none" xmlns="http://www.w3.org/2000/svg">
<rect x="0.8659" y="0.8659" width="39.5172" height="39.2682" rx="19.6341" stroke="#C4C4C4" stroke-opacity="0.3" stroke-width="0.7318"/>
<path fill-rule="evenodd" clip-rule="evenodd" d="M16.0413 11.3333C16.5476 11.3333 16.958 11.7437 16.958 12.2499V13.1666H24.2913V12.2499C24.2913 11.7437 24.7017 11.3333 25.208 11.3333C25.7143 11.3333 26.1247 11.7437 26.1247 12.2499V13.1666H27.0413C28.5601 13.1666 29.7913 14.3978 29.7913 15.9166V26.9166C29.7913 28.4354 28.5601 29.6666 27.0413 29.6666H14.208C12.6892 29.6666 11.458 28.4354 11.458 26.9166V15.9166C11.458 14.3978 12.6892 13.1666 14.208 13.1666H15.1247V12.2499C15.1247 11.7437 15.5351 11.3333 16.0413 11.3333ZM24.2913 14.9999V15.9166C24.2913 16.4228 24.7017 16.8333 25.208 16.8333C25.7143 16.8333 26.1247 16.4228 26.1247 15.9166V14.9999H27.0413C27.5476 14.9999 27.958 15.4103 27.958 15.9166V18.6666H13.2913V15.9166C13.2913 15.4103 13.7017 14.9999 14.208 14.9999H15.1247V15.9166C15.1247 16.4228 15.5351 16.8333 16.0413 16.8333C16.5476 16.8333 16.958 16.4228 16.958 15.9166V14.9999H24.2913ZM13.2913 20.4999V26.9166C13.2913 27.4228 13.7017 27.8333 14.208 27.8333H27.0413C27.5476 27.8333 27.958 27.4228 27.958 26.9166V20.4999H13.2913Z" fill="#6F767E"/>
</svg>
