<svg width="12" height="12" viewBox="0 0 12 12" fill="none" xmlns="http://www.w3.org/2000/svg">
<path d="M9.975 10.5C8.93333 10.5 7.90417 10.273 6.8875 9.819C5.87083 9.365 4.94583 8.72117 4.1125 7.8875C3.27917 7.05383 2.6355 6.12883 2.1815 5.1125C1.7275 4.09617 1.50033 3.067 1.5 2.025C1.5 1.875 1.55 1.75 1.65 1.65C1.75 1.55 1.875 1.5 2.025 1.5H4.05C4.16667 1.5 4.27083 1.53967 4.3625 1.619C4.45417 1.69833 4.50833 1.792 4.525 1.9L4.85 3.65C4.86667 3.78333 4.8625 3.89583 4.8375 3.9875C4.8125 4.07917 4.76667 4.15833 4.7 4.225L3.4875 5.45C3.65417 5.75833 3.852 6.05617 4.081 6.3435C4.31 6.63083 4.56217 6.908 4.8375 7.175C5.09583 7.43333 5.36667 7.673 5.65 7.894C5.93333 8.115 6.23333 8.317 6.55 8.5L7.725 7.325C7.8 7.25 7.898 7.19383 8.019 7.1565C8.14 7.11917 8.25867 7.10867 8.375 7.125L10.1 7.475C10.2167 7.50833 10.3125 7.56883 10.3875 7.6565C10.4625 7.74417 10.5 7.842 10.5 7.95V9.975C10.5 10.125 10.45 10.25 10.35 10.35C10.25 10.45 10.125 10.5 9.975 10.5Z" fill="white"/>
</svg>
