<svg width="33" height="34" viewBox="0 0 33 34" fill="none" xmlns="http://www.w3.org/2000/svg">
<path opacity="0.4" fill-rule="evenodd" clip-rule="evenodd" d="M12.9968 23.2804C12.5511 23.5151 12.5268 23.6019 12.4871 25.1005C12.448 26.579 12.4063 26.7645 12.0227 27.1673C11.7631 27.4399 11.2489 27.6848 10.9345 27.6856C10.4302 27.6869 9.97511 28.037 9.89 28.489C9.82778 28.8195 10.0123 29.2486 10.3005 29.4437C10.7251 29.7312 11.7094 29.6227 12.5226 29.1989C12.9961 28.9521 13.6788 28.2867 13.9534 27.8045C14.3173 27.1653 14.4131 26.6239 14.4131 25.2062C14.4131 24.078 14.4005 23.9339 14.2811 23.688C14.1852 23.4907 14.0743 23.3803 13.8763 23.2848C13.5411 23.1231 13.2978 23.1219 12.9968 23.2804ZM15.9898 23.2979C15.5008 23.5772 15.5025 23.5665 15.5027 26.3764C15.5027 29.1542 15.5041 29.1635 15.9446 29.4567C16.4009 29.7604 17.0643 29.5824 17.3128 29.0896C17.4138 28.8894 17.4249 28.6205 17.4249 26.3764C17.4251 24.0733 17.4161 23.8687 17.3063 23.663C17.1619 23.3927 16.768 23.1553 16.4638 23.1553C16.3404 23.1553 16.1272 23.2195 15.9898 23.2979ZM19.0465 23.286C18.8543 23.3808 18.7398 23.4961 18.646 23.6892C18.5272 23.9336 18.5145 24.0799 18.5145 25.2062C18.5145 26.6239 18.6103 27.1653 18.9743 27.8045C19.2488 28.2867 19.9316 28.9521 20.405 29.1989C21.2182 29.6227 22.2025 29.7312 22.6271 29.4437C22.9153 29.2486 23.0998 28.8195 23.0376 28.489C22.9525 28.037 22.4974 27.6869 21.9932 27.6856C21.6787 27.6848 21.1645 27.4399 20.9049 27.1673C20.5213 26.7645 20.4796 26.579 20.4405 25.1005C20.4007 23.5942 20.3767 23.5108 19.9171 23.2772C19.6046 23.1184 19.3818 23.1207 19.0465 23.286Z" fill="white"/>
<path fill-rule="evenodd" clip-rule="evenodd" d="M3.20907 4.79464C3.02137 4.8399 2.62084 4.99881 2.319 5.14783C1.36138 5.6206 0.636393 6.46693 0.240221 7.57451L0.0918012 7.98951L0.0723195 13.2012C0.0503385 19.0664 0.0417511 18.9362 0.514888 19.8966C1.01225 20.9062 2.01549 21.7281 3.13377 22.042C3.34256 22.1006 3.88459 22.1554 4.46353 22.1765L5.44082 22.2121L5.44178 20.8149C5.44287 19.2235 5.49946 18.8696 5.87467 18.1089C6.22047 17.4079 6.95629 16.684 7.68378 16.3293C8.65306 15.8566 8.26432 15.8766 16.4634 15.8766C24.6624 15.8766 24.2737 15.8566 25.243 16.3293C25.9705 16.684 26.7063 17.4079 27.0521 18.1089C27.4273 18.8696 27.4839 19.2235 27.485 20.8149L27.4859 22.2121L28.4632 22.1765C29.0422 22.1554 29.5842 22.1006 29.793 22.042C30.9113 21.7281 31.9145 20.9062 32.4119 19.8966C32.885 18.9362 32.8764 19.0664 32.8544 13.2012L32.835 7.98951L32.6865 7.57451C32.2788 6.4345 31.5569 5.60655 30.5514 5.12593C30.2224 4.96862 29.8004 4.80881 29.6136 4.7707C29.0802 4.66197 3.66382 4.68502 3.20907 4.79464ZM23.4242 8.50422C23.8818 8.84509 24.0095 9.33689 23.7547 9.77717C23.5083 10.2029 23.3095 10.2635 22.231 10.2423C21.4185 10.2264 21.2804 10.2081 21.1317 10.0964C20.6766 9.75476 20.6025 9.14555 20.9608 8.69167C21.2005 8.38809 21.4065 8.33912 22.3708 8.35668C23.1415 8.37066 23.2688 8.38847 23.4242 8.50422ZM27.9973 8.45251C28.12 8.51386 28.2883 8.66467 28.3715 8.78757C28.5776 9.0923 28.549 9.66052 28.315 9.91003C28.0249 10.2194 27.8776 10.256 26.9219 10.256C26.1023 10.256 26.0135 10.2444 25.8132 10.1111C25.1986 9.70202 25.2527 8.79421 25.911 8.46956C26.2717 8.29168 27.6535 8.28038 27.9973 8.45251ZM9.10076 17.8587C8.47439 17.9813 7.80843 18.5089 7.54312 19.0927C7.40597 19.3945 7.39393 19.5172 7.37489 20.8064L7.35439 22.195H16.4634H25.5724L25.5519 20.8064C25.5328 19.5172 25.5208 19.3945 25.3836 19.0927C25.2147 18.7208 24.754 18.2446 24.3763 18.0515C24.2345 17.979 23.9638 17.8903 23.7748 17.8546C23.3495 17.7743 9.51256 17.7782 9.10076 17.8587Z" fill="white"/>
</svg>
