<svg width="33" height="34" viewBox="0 0 33 34" fill="none" xmlns="http://www.w3.org/2000/svg">
<path fill-rule="evenodd" clip-rule="evenodd" d="M4.42724 0.918418C3.46596 1.10889 2.6225 1.85247 2.28331 2.80849C2.16275 3.14826 2.14859 3.36421 2.12378 5.24267C2.10661 6.54292 2.12263 7.49703 2.16717 7.82677C2.25966 8.51147 2.5184 9.05787 2.9552 9.49106C3.58742 10.118 4.25847 10.3649 5.33018 10.3649H5.94785L5.96708 12.52C5.98567 14.6109 5.99061 14.6838 6.13156 14.9688C6.79986 16.32 8.61511 16.448 9.45614 15.2032C9.74155 14.7807 9.79982 14.3322 9.79982 12.5561C9.79982 11.0678 9.80411 11.0159 9.94531 10.8054C10.3277 10.2351 11.1307 10.2351 11.513 10.8054C11.6379 10.9916 11.6585 11.1054 11.6585 11.6077C11.6585 12.643 11.7989 13.1302 12.2264 13.579C13.196 14.5966 14.8777 14.2409 15.385 12.9108C15.4847 12.6496 15.5041 12.4156 15.5041 11.4816V10.3649H19.9772C24.8794 10.3649 24.8621 10.3661 25.5313 9.98299C25.919 9.76103 26.3858 9.2919 26.6135 8.89536C26.8488 8.48561 26.9748 7.87792 26.9759 7.14756L26.9769 6.51623L27.5801 6.54771C28.2397 6.58207 28.4938 6.682 28.7327 7.00107C28.8589 7.16952 28.8689 7.27296 28.8861 8.59742C28.9038 9.96549 28.8995 10.0234 28.7579 10.2996C28.6772 10.4568 28.5248 10.6346 28.419 10.6947C28.3132 10.7548 25.7917 11.4945 22.8155 12.3386C19.8393 13.1825 17.2531 13.9493 17.0683 14.0424C16.8835 14.1356 16.5839 14.3589 16.4025 14.5386C15.7392 15.196 15.5067 15.8476 15.5051 17.0536L15.5041 17.7719H16.4602H17.4162L17.4376 17.0101C17.4605 16.1939 17.5118 16.0513 17.8796 15.7815C17.9655 15.7184 20.473 14.9758 23.4517 14.1312C26.4305 13.2867 29.0219 12.5212 29.2105 12.4303C29.9748 12.0617 30.6185 11.1749 30.7562 10.301C30.8355 9.79736 30.8397 7.75238 30.7626 7.15675C30.6587 6.35398 30.1727 5.58039 29.4886 5.12894C29.01 4.81312 28.4776 4.6819 27.6752 4.6819H26.9769L26.9759 4.05933C26.9754 3.71694 26.9314 3.25247 26.8781 3.02732C26.6625 2.11593 25.9276 1.31929 24.9992 0.990446C24.7279 0.894409 23.8162 0.884129 14.703 0.874295C9.20375 0.868357 4.57965 0.888216 4.42724 0.918418Z" fill="white"/>
<path opacity="0.4" fill-rule="evenodd" clip-rule="evenodd" d="M12.004 19.8427C11.7606 19.9484 11.6578 20.2063 11.6617 20.7025C11.6679 21.496 11.6902 21.5365 12.6454 22.49L13.5181 23.361L12.9637 26.0737C12.4658 28.5099 12.4093 28.8581 12.4093 29.4889C12.4093 30.0854 12.4356 30.2684 12.5836 30.7021C12.8687 31.5378 13.32 32.1865 13.9536 32.6714C14.748 33.2793 15.4414 33.511 16.4659 33.511C17.4905 33.511 18.1839 33.2793 18.9783 32.6714C19.6179 32.1819 20.093 31.5024 20.3552 30.7021C20.4945 30.277 20.5226 30.0733 20.5225 29.4889C20.5223 28.8585 20.4656 28.5085 19.9684 26.0753L19.4144 23.3642L20.3117 22.4627L21.2089 21.5611V20.9733C21.2089 20.3273 21.1192 20.0216 20.8809 19.8553C20.7465 19.7615 20.3086 19.7514 16.4677 19.7537C13.0237 19.7557 12.1653 19.7728 12.004 19.8427Z" fill="white"/>
</svg>
