<svg width="33" height="34" viewBox="0 0 33 34" fill="none" xmlns="http://www.w3.org/2000/svg">
<path fill-rule="evenodd" clip-rule="evenodd" d="M10.2978 0.88814C10.0601 0.997799 9.84688 1.22352 9.75649 1.46126C9.7122 1.57776 9.688 2.53162 9.688 4.16122V6.68108L8.08774 6.70021C6.32706 6.72126 6.32988 6.72062 6.0009 7.15983C5.87315 7.3304 5.86853 7.41402 5.86853 9.56639C5.86853 11.7188 5.87315 11.8024 6.0009 11.9729C6.2809 12.3468 6.43811 12.4117 7.11932 12.4353L7.7513 12.4571L7.77948 15.4103C7.80561 18.1435 7.81807 18.4099 7.94671 18.9868C8.33071 20.7095 9.08607 22.0846 10.3286 23.3231C11.3383 24.3293 12.4118 24.9974 13.7107 25.4279C14.2684 25.6128 15.1496 25.8169 15.3897 25.8169C15.4925 25.8169 15.5247 25.8958 15.5919 26.3128C15.7941 27.5655 16.4447 29.0779 17.2253 30.1094C18.745 32.1177 21.1108 33.3818 23.6377 33.536C24.1935 33.5699 24.3368 33.5583 24.5373 33.4635C25.1901 33.1547 25.2768 32.2337 24.692 31.8188C24.5387 31.71 24.3539 31.6701 23.8081 31.6278C21.2846 31.4323 19.1906 30.0576 18.1241 27.8963C17.8429 27.3265 17.4553 26.1584 17.4553 25.8809C17.4553 25.8546 17.7109 25.7866 18.0232 25.7297C19.6979 25.4243 21.1747 24.6562 22.4407 23.4319C23.8469 22.072 24.7132 20.4111 25.0009 18.5234C25.0706 18.0663 25.0936 17.2391 25.0939 15.1863L25.0943 12.4571L25.7522 12.4353C26.3085 12.4168 26.4412 12.3914 26.6109 12.2708C27.0091 11.9877 27.02 11.9151 27.02 9.56639C27.02 7.21767 27.0091 7.14505 26.6109 6.86201C26.418 6.72484 26.3475 6.71857 24.7893 6.70027L23.1685 6.68121V4.1188C23.1685 1.28673 23.1657 1.26485 22.7594 0.975982C22.6139 0.872529 22.4673 0.83331 22.2263 0.83331C21.8674 0.83331 21.6494 0.950455 21.4072 1.27374C21.2793 1.44437 21.2742 1.53861 21.2567 4.06883L21.2386 6.68735H16.4262H11.6138V4.12187C11.6138 1.29632 11.6096 1.26363 11.2148 0.983468C10.9778 0.815204 10.552 0.770931 10.2978 0.88814ZM16.8531 12.5493C17.252 12.7379 17.477 13.2473 17.3624 13.7024C17.3377 13.8007 17.0599 14.1416 16.7377 14.469L16.1576 15.0586L17.5729 15.7683C19.0365 16.5023 19.2165 16.6341 19.2903 17.0264C19.386 17.535 19.3161 17.6448 18.1398 18.831C17.5338 19.4421 16.9601 19.9828 16.8648 20.0325C16.3152 20.3189 15.573 19.8968 15.4857 19.248C15.4381 18.8945 15.5734 18.6606 16.1917 18.0279C16.4752 17.7378 16.6949 17.4894 16.68 17.476C16.6651 17.4626 16.0127 17.1313 15.2303 16.7398C13.8536 16.051 13.8033 16.0191 13.6736 15.752C13.3862 15.1603 13.5191 14.9176 14.8458 13.6104C15.4231 13.0417 15.9648 12.5487 16.0495 12.515C16.286 12.4207 16.6105 12.4345 16.8531 12.5493Z" fill="white"/>
</svg>
