<svg width="28" height="29" viewBox="0 0 28 29" fill="none" xmlns="http://www.w3.org/2000/svg">
<path opacity="0.4" fill-rule="evenodd" clip-rule="evenodd" d="M11.7468 6.37882C11.2902 6.49264 10.9484 6.68702 10.6041 7.02871C10.2495 7.38067 10.0352 7.76823 9.93644 8.23601C9.89984 8.40921 9.87598 9.15083 9.87598 10.1133V11.7043H18.8232H27.7704V10.1133C27.7704 9.13155 27.7468 8.41267 27.7089 8.23601C27.509 7.30552 26.758 6.55688 25.8292 6.36229C25.3944 6.27115 12.116 6.28676 11.7468 6.37882ZM20.8309 8.30159C21.0715 8.4239 21.2633 8.73513 21.2633 9.00319C21.2633 9.41608 20.8624 9.81353 20.4459 9.81353C20.1937 9.81353 19.8587 9.60343 19.7394 9.37043C19.5392 8.97936 19.6649 8.55242 20.0483 8.32115C20.3079 8.16459 20.5494 8.15854 20.8309 8.30159ZM24.0845 8.30159C24.3251 8.4239 24.5169 8.73513 24.5169 9.00319C24.5169 9.41608 24.116 9.81353 23.6995 9.81353C23.4473 9.81353 23.1122 9.60343 22.993 9.37043C22.7927 8.97936 22.9184 8.55242 23.3018 8.32115C23.5615 8.16459 23.803 8.15854 24.0845 8.30159Z" fill="white"/>
<path fill-rule="evenodd" clip-rule="evenodd" d="M1.87908 0.867974C1.4225 0.9818 1.08072 1.17617 0.736439 1.51787C0.381859 1.86983 0.167506 2.25738 0.0687617 2.72517C0.0276587 2.91986 0.00830078 4.2122 0.00830078 6.76336V10.5153H4.12944H8.25057V9.43257C8.25057 8.23543 8.31624 7.76894 8.56974 7.16486C8.96217 6.22978 9.78673 5.40712 10.733 5.00665C11.4509 4.70283 11.6966 4.68084 14.3758 4.68084H16.8182V3.84614C16.8182 3.38705 16.7905 2.88264 16.7567 2.72517C16.5568 1.79468 15.8058 1.04603 14.877 0.851443C14.443 0.760469 2.24798 0.776028 1.87908 0.867974ZM4.4562 5.22177C4.59399 5.29179 4.70917 5.40653 4.77944 5.5438C4.87949 5.73925 4.88859 5.86081 4.88859 7.00382C4.88859 8.14683 4.87949 8.26838 4.77944 8.46384C4.65602 8.70483 4.34395 8.89461 4.0712 8.89461C3.819 8.89461 3.48399 8.68452 3.36469 8.45152C3.27219 8.27087 3.26205 8.12392 3.26411 6.99247C3.26666 5.56665 3.28846 5.47357 3.67356 5.24133C3.9332 5.08477 4.17472 5.07872 4.4562 5.22177ZM0.00830078 19.1833C0.00830078 24.2327 0.0257632 26.3117 0.0697943 26.5169C0.269181 27.445 1.01792 28.1909 1.94952 28.3896C2.14646 28.4315 3.31052 28.4508 5.64976 28.4508H9.0626L8.87411 28.1573C8.68102 27.8565 8.52089 27.4968 8.36754 27.0192C8.29021 26.7782 8.27904 25.9609 8.2644 19.4425L8.24792 12.136H4.12813H0.00830078V19.1833ZM9.87734 19.7775C9.87734 24.3839 9.89496 26.3125 9.93883 26.5169C10.1382 27.445 10.887 28.1909 11.8186 28.3896C12.2217 28.4755 25.4211 28.4764 25.8305 28.3905C26.7507 28.1975 27.5192 27.432 27.7116 26.5169C27.7537 26.3164 27.7717 24.2965 27.7717 19.7775V13.3245H18.8245H9.87734V19.7775ZM4.4562 13.8654C4.59399 13.9354 4.70917 14.0502 4.77944 14.1874C4.88383 14.3913 4.88859 14.5021 4.88859 16.7279C4.88859 18.9537 4.88383 19.0645 4.77944 19.2684C4.65602 19.5094 4.34395 19.6992 4.0712 19.6992C3.819 19.6992 3.48399 19.4891 3.36469 19.2561C3.26828 19.0678 3.26199 18.9087 3.26411 16.7166C3.26666 14.0844 3.25939 14.1348 3.67356 13.885C3.9332 13.7284 4.17472 13.7224 4.4562 13.8654ZM20.0988 15.1037C21.9057 15.5732 23.3217 16.9923 23.8218 18.8348C23.9249 19.2147 23.9465 19.4293 23.9465 20.0773C23.9465 20.7253 23.9249 20.9399 23.8218 21.3198C23.3221 23.1611 21.9256 24.5623 20.0988 25.0553C19.4569 25.2286 18.2238 25.2283 17.5774 25.0547C15.7245 24.5571 14.3317 23.1765 13.8251 21.3352C13.6583 20.7291 13.6583 19.4255 13.8251 18.8194C14.3854 16.783 16.0317 15.3204 18.1467 14.9803C18.5226 14.9198 19.6707 14.9924 20.0988 15.1037ZM18.0654 16.6498C17.092 16.8581 16.13 17.6107 15.6868 18.5107C15.4322 19.0275 15.3018 19.5583 15.3018 20.0773C15.3018 21.3689 16.0927 22.6366 17.252 23.2033C18.2962 23.7138 19.3529 23.7138 20.3971 23.2033C21.3124 22.7559 22.0595 21.7987 22.2679 20.8066C22.4338 20.0166 22.3337 19.2648 21.9623 18.5107C21.645 17.8663 21.0438 17.2674 20.3971 16.9513C19.6429 16.5826 18.8555 16.4808 18.0654 16.6498Z" fill="white"/>
</svg>
