<svg width="33" height="34" viewBox="0 0 33 34" fill="none" xmlns="http://www.w3.org/2000/svg">
<path fill-rule="evenodd" clip-rule="evenodd" d="M1.55759 0.901561C1.14946 1.02792 0.602666 1.53418 0.406108 1.9677C0.260262 2.28932 0.253204 2.3684 0.253204 3.68041C0.253204 4.99242 0.260262 5.07149 0.406108 5.39311C0.614927 5.85363 1.15017 6.33552 1.59644 6.46482C1.88871 6.54953 2.51645 6.56053 6.16548 6.54524L10.3957 6.52746L10.7245 6.35452C11.1342 6.13917 11.5419 5.6853 11.6747 5.29689C11.8206 4.87009 11.8206 2.49073 11.6747 2.06392C11.5419 1.67551 11.1342 1.22165 10.7245 1.00629L10.3957 0.83336L6.12684 0.820948C2.54687 0.810519 1.80955 0.823507 1.55759 0.901561ZM28.1976 1.34807C27.7891 1.47641 27.242 1.98357 27.0461 2.41555L26.8932 2.75272V7.00729V11.2619L27.0461 11.599C27.1405 11.8074 27.3325 12.0578 27.5483 12.2544C28.0715 12.7309 28.3011 12.7792 29.9266 12.754C31.2308 12.7338 31.2651 12.7298 31.5872 12.5604C31.7681 12.4654 32.0331 12.255 32.1762 12.0931C32.6532 11.553 32.6385 11.7146 32.6385 7.00729C32.6385 2.29994 32.6532 2.46162 32.1762 1.92151C32.0331 1.75958 31.7681 1.54922 31.5872 1.45414C31.2623 1.28332 31.2416 1.28102 29.8782 1.26745C28.8094 1.25677 28.4302 1.27494 28.1976 1.34807ZM23.0737 2.25336C19.3425 2.65163 16.2212 5.37853 15.3354 9.01398C15.0878 10.0303 15.0416 11.0983 15.0625 15.3245L15.0817 19.1952L19.8801 19.2116L24.6786 19.228V15.5168V11.8057H24.8702H25.0617L25.0146 11.4058C24.9531 10.8847 24.9531 3.12987 25.0146 2.60877L25.0617 2.2089L24.1801 2.21914C23.6952 2.22477 23.1973 2.24019 23.0737 2.25336ZM2.81212 17.0195C2.66601 17.0725 2.24716 17.2444 1.88133 17.4014L1.21609 17.6871L1.19709 19.8807C1.17064 22.9339 1.29435 24.0445 1.83658 25.62C2.85429 28.5771 5.04076 31.0413 7.82794 32.3726C8.72093 32.799 9.12361 32.9465 10.0387 33.1817C13.2786 34.0146 16.691 33.4248 19.511 31.5444C22.7218 29.4034 24.6786 25.7842 24.6786 21.9861V21.1466H19.8699H15.0613L15.0374 21.8023C15.0095 22.5657 14.882 22.8971 14.4492 23.3309C14.0332 23.7478 13.5822 23.9295 12.9634 23.9295C12.0887 23.9295 11.4358 23.5288 11.055 22.7581L10.845 22.3333L10.8129 20.0013L10.7808 17.6694L9.96255 17.3257C8.7764 16.8274 8.68845 16.8253 7.73313 17.2725C6.69995 17.7562 6.17299 17.8671 5.52978 17.7364C5.25625 17.6808 4.76878 17.5006 4.3591 17.3037C3.58122 16.9297 3.23495 16.8661 2.81212 17.0195Z" fill="white"/>
<path opacity="0.4" fill-rule="evenodd" clip-rule="evenodd" d="M1.18436 11.9588C1.18436 13.9507 1.1997 15.5804 1.2185 15.5804C1.23731 15.5804 1.36005 15.5343 1.49132 15.478C2.1362 15.2014 2.66503 15.0592 3.17433 15.0253C3.65199 14.9937 3.78211 15.01 4.21901 15.1569C4.49349 15.2491 4.95555 15.4436 5.24583 15.5891C5.54125 15.7371 5.87274 15.8561 5.99887 15.8594C6.14896 15.8634 6.48154 15.7437 6.99419 15.5013C7.41767 15.3011 7.8941 15.1082 8.05298 15.0725C8.7064 14.926 9.56774 15.0519 10.3879 15.4139C10.5953 15.5055 10.7759 15.5804 10.7891 15.5804C10.8024 15.5804 10.8133 13.9576 10.8133 11.9744V8.36829L10.4944 8.42606C10.0939 8.49861 1.4496 8.46656 1.29669 8.39196C1.19039 8.34007 1.18436 8.53137 1.18436 11.9588Z" fill="white"/>
</svg>
