<svg width="31" height="31" viewBox="0 0 31 31" fill="none" xmlns="http://www.w3.org/2000/svg">
<path d="M29.4661 14.9302C29.4714 16.9704 28.9952 18.983 28.0761 20.804C26.9864 22.9862 25.3111 24.8217 23.2379 26.1048C21.1648 27.388 18.7756 28.0681 16.3381 28.069C14.2996 28.0744 12.2886 27.5977 10.469 26.6779L1.66553 29.6148L4.60003 20.804C3.68096 18.983 3.20469 16.9704 3.21 14.9302C3.21095 12.4906 3.89052 10.0995 5.1726 8.02462C6.45468 5.94975 8.28864 4.27311 10.469 3.18248C12.2886 2.26265 14.2996 1.78598 16.3381 1.7913H17.1103C20.3295 1.96905 23.3701 3.32896 25.6499 5.61063C27.9297 7.89231 29.2885 10.9354 29.4661 14.1573V14.9302Z" fill="#241353" stroke="#241353" stroke-width="2" stroke-linecap="round" stroke-linejoin="round"/>
<g clip-path="url(#clip0_52_658)">
<path d="M12.6508 15.0699C13.0009 15.0699 13.2847 14.7868 13.2847 14.4375C13.2847 14.0883 13.0009 13.8052 12.6508 13.8052C12.3008 13.8052 12.017 14.0883 12.017 14.4375C12.017 14.7868 12.3008 15.0699 12.6508 15.0699Z" fill="white" stroke="white" stroke-width="1.6" stroke-linecap="round" stroke-linejoin="round"/>
<path d="M17.0831 15.0699C17.4331 15.0699 17.7169 14.7868 17.7169 14.4375C17.7169 14.0883 17.4331 13.8052 17.0831 13.8052C16.733 13.8052 16.4492 14.0883 16.4492 14.4375C16.4492 14.7868 16.733 15.0699 17.0831 15.0699Z" fill="white" stroke="white" stroke-width="1.6" stroke-linecap="round" stroke-linejoin="round"/>
<path d="M21.5184 15.0699C21.8684 15.0699 22.1522 14.7868 22.1522 14.4375C22.1522 14.0883 21.8684 13.8052 21.5184 13.8052C21.1683 13.8052 20.8845 14.0883 20.8845 14.4375C20.8845 14.7868 21.1683 15.0699 21.5184 15.0699Z" fill="white" stroke="white" stroke-width="1.6" stroke-linecap="round" stroke-linejoin="round"/>
</g>
<defs>
<clipPath id="clip0_52_658">
<rect width="15.164" height="15.1765" fill="white" transform="translate(9.24756 6.8501)"/>
</clipPath>
</defs>
</svg>
