<svg width="19" height="18" viewBox="0 0 19 18" fill="none" xmlns="http://www.w3.org/2000/svg">
<path d="M11.259 14.074C14.0523 14.074 15.4494 14.074 16.3168 13.2059C17.1849 12.3385 17.1849 10.9414 17.1849 8.14809C17.1849 5.35476 17.1849 3.95772 16.3168 3.09032C15.4494 2.22217 14.0523 2.22217 11.259 2.22217H8.29604C5.50271 2.22217 4.10567 2.22217 3.23827 3.09032C2.37012 3.95772 2.37012 5.35476 2.37012 8.14809C2.37012 10.9414 2.37012 12.3385 3.23827 13.2059C3.72197 13.6903 4.37012 13.9044 5.33308 13.9985" stroke="#808080" stroke-width="1.48148" stroke-linecap="round" stroke-linejoin="round"/>
<path d="M11.2588 14.074C10.3432 14.074 9.33434 14.4444 8.4136 14.9222C6.9336 15.6903 6.1936 16.0747 5.82916 15.8296C5.46471 15.5851 5.5336 14.8259 5.67212 13.3081L5.70323 12.9629" stroke="#808080" stroke-width="1.48148" stroke-linecap="round"/>
</svg>
