<svg width="24" height="24" viewBox="0 0 24 24" fill="none" xmlns="http://www.w3.org/2000/svg">
<path d="M19.5 15H15V13.5H19.5V15ZM22.5 21H18V19.5H22.5V21ZM21 18H16.5V16.5H21V18Z" fill="white"/>
<path d="M12.7525 15C12.7469 14.3672 12.5779 13.7466 12.2621 13.1983C11.9462 12.65 11.4941 12.1926 10.9495 11.8702L16.5003 2.25L15.2028 1.5L9.52004 11.3445C8.82261 11.1888 8.09727 11.2103 7.41033 11.4073C6.7234 11.6042 6.09679 11.9702 5.58779 12.4718C2.77979 15.18 2.99729 21.5115 3.00779 21.78C3.01554 21.9737 3.09797 22.1568 3.23779 22.291C3.37761 22.4253 3.56397 22.5002 3.75779 22.5H15.001C15.1584 22.5 15.3119 22.4505 15.4396 22.3584C15.5673 22.2664 15.6628 22.1365 15.7126 21.9872C15.7623 21.8378 15.7639 21.6766 15.7169 21.5264C15.67 21.3761 15.577 21.2444 15.451 21.15C12.796 19.158 12.7525 15.0405 12.7525 15ZM8.94779 12.7477C9.54807 12.7543 10.1227 12.9921 10.5521 13.4116C10.9815 13.8311 11.2327 14.4 11.2533 15C11.2533 15.0285 11.2548 15.156 11.266 15.3517L6.84104 13.3837C7.13252 13.1434 7.46887 12.9634 7.83055 12.8542C8.19223 12.745 8.572 12.7088 8.94779 12.7477ZM11.5878 21C10.9883 20.3896 10.6062 19.599 10.5003 18.75H9.00029C9.054 19.5482 9.30334 20.3209 9.72629 21H8.05904C7.75047 20.0267 7.56282 19.0191 7.50029 18H6.00029C6.04836 19.0161 6.21576 20.023 6.49904 21H4.50029C4.52354 19.623 4.71779 16.581 5.85254 14.5853L11.5023 17.0978C11.7731 18.5074 12.3519 19.8399 13.1973 21H11.5878Z" fill="white"/>
</svg>
