<svg width="24" height="24" viewBox="0 0 24 24" fill="none" xmlns="http://www.w3.org/2000/svg">
<g clip-path="url(#clip0_53_5487)">
<path d="M22.6172 2.57812C22.8203 2.92969 23.0039 3.26562 23.168 3.58594C23.332 3.90625 23.4805 4.23047 23.6133 4.55859C23.7461 4.88672 23.8398 5.22656 23.8945 5.57812C23.9492 5.92969 23.9844 6.32031 24 6.75C24 7.36719 23.9219 7.96094 23.7656 8.53125C23.6094 9.10156 23.3828 9.64062 23.0859 10.1484C22.7891 10.6562 22.4336 11.1133 22.0195 11.5195C21.6055 11.9258 21.1484 12.2773 20.6484 12.5742C20.1484 12.8711 19.6133 13.0977 19.043 13.2539C18.4727 13.4102 17.875 13.4922 17.25 13.5C17.0703 13.5 16.8906 13.4922 16.7109 13.4766C16.5312 13.4609 16.3477 13.4375 16.1602 13.4062L6.71484 22.8516C6.33984 23.2266 5.91406 23.5117 5.4375 23.707C4.96094 23.9023 4.45703 24 3.92578 24C3.38672 24 2.87891 23.8984 2.40234 23.6953C1.92578 23.4922 1.51172 23.2109 1.16016 22.8516C0.808594 22.4922 0.527344 22.0742 0.316406 21.5977C0.105469 21.1211 0 20.6133 0 20.0742C0 19.5508 0.0976563 19.0508 0.292969 18.5742C0.488281 18.0977 0.773438 17.668 1.14844 17.2852L10.5938 7.83984C10.5625 7.66016 10.5391 7.48047 10.5234 7.30078C10.5078 7.12109 10.5 6.9375 10.5 6.75C10.5 6.13281 10.5781 5.53906 10.7344 4.96875C10.8906 4.39844 11.1172 3.85938 11.4141 3.35156C11.7109 2.84375 12.0664 2.38672 12.4805 1.98047C12.8945 1.57422 13.3516 1.22266 13.8516 0.925781C14.3516 0.628906 14.8867 0.402344 15.457 0.246094C16.0273 0.0898438 16.625 0.0078125 17.25 0C17.6719 0 18.0586 0.03125 18.4102 0.09375C18.7617 0.15625 19.1055 0.253906 19.4414 0.386719C19.7773 0.519531 20.1016 0.664062 20.4141 0.820312C20.7266 0.976562 21.0625 1.16406 21.4219 1.38281L16.8047 6L18 7.19531L22.6172 2.57812ZM17.25 12C17.9766 12 18.6562 11.8633 19.2891 11.5898C19.9219 11.3164 20.4766 10.9414 20.9531 10.4648C21.4297 9.98828 21.8047 9.43359 22.0781 8.80078C22.3516 8.16797 22.4922 7.48438 22.5 6.75C22.5 6.17969 22.4062 5.62891 22.2188 5.09766L18 9.30469L14.6953 6L18.9023 1.78125C18.3711 1.59375 17.8203 1.5 17.25 1.5C16.5234 1.5 15.8438 1.63672 15.2109 1.91016C14.5781 2.18359 14.0234 2.55859 13.5469 3.03516C13.0703 3.51172 12.6953 4.06641 12.4219 4.69922C12.1484 5.33203 12.0078 6.01562 12 6.75C12 7.02344 12.0234 7.28906 12.0703 7.54688C12.1172 7.80469 12.1719 8.0625 12.2344 8.32031L2.21484 18.3516C1.98828 18.5781 1.8125 18.8398 1.6875 19.1367C1.5625 19.4336 1.5 19.7461 1.5 20.0742C1.5 20.4023 1.5625 20.7148 1.6875 21.0117C1.8125 21.3086 1.98828 21.5664 2.21484 21.7852C2.44141 22.0039 2.69922 22.1758 2.98828 22.3008C3.27734 22.4258 3.58984 22.4922 3.92578 22.5C4.25391 22.5 4.56641 22.4375 4.86328 22.3125C5.16016 22.1875 5.42188 22.0117 5.64844 21.7852L15.6797 11.7656C15.9375 11.8281 16.1953 11.8828 16.4531 11.9297C16.7109 11.9766 16.9766 12 17.25 12Z" fill="white"/>
</g>
<defs>
<clipPath id="clip0_53_5487">
<rect width="24" height="24" fill="white"/>
</clipPath>
</defs>
</svg>
