<svg width="44" height="8" viewBox="0 0 44 8" fill="none" xmlns="http://www.w3.org/2000/svg">
<path d="M4 0L4.89806 2.76393H7.80423L5.45308 4.47214L6.35114 7.23607L4 5.52786L1.64886 7.23607L2.54692 4.47214L0.195774 2.76393H3.10194L4 0Z" fill="white"/>
<path d="M13 0L13.8981 2.76393H16.8042L14.4531 4.47214L15.3511 7.23607L13 5.52786L10.6489 7.23607L11.5469 4.47214L9.19577 2.76393H12.1019L13 0Z" fill="white"/>
<path d="M22 0L22.8981 2.76393H25.8042L23.4531 4.47214L24.3511 7.23607L22 5.52786L19.6489 7.23607L20.5469 4.47214L18.1958 2.76393H21.1019L22 0Z" fill="white"/>
<path d="M31 0L31.8981 2.76393H34.8042L32.4531 4.47214L33.3511 7.23607L31 5.52786L28.6489 7.23607L29.5469 4.47214L27.1958 2.76393H30.1019L31 0Z" fill="#DDDDDD"/>
<path d="M40 0L40.8981 2.76393H43.8042L41.4531 4.47214L42.3511 7.23607L40 5.52786L37.6489 7.23607L38.5469 4.47214L36.1958 2.76393H39.1019L40 0Z" fill="#DDDDDD"/>
</svg>
