<svg width="24" height="24" viewBox="0 0 24 24" fill="none" xmlns="http://www.w3.org/2000/svg">
<path d="M10.945 22C6.557 22 3 18.418 3 14C3 11.916 3.958 9.832 5.21 8C5.466 9.5 6.575 12.4 8.959 12C6.335 6.5 10.945 2 10.945 2C10.945 2 11.442 5.5 15.911 9C16.3243 9.324 16.6873 9.65733 17 10M15.536 16.202C16.816 16.069 18.185 16.038 19.466 16.192M15.535 16.202C15.535 15.507 15.428 14.546 15.835 13.92C16.738 12.54 18.601 12.78 19.262 14.1C19.563 14.761 19.452 15.538 19.467 16.193C19.925 16.248 20.56 16.481 20.826 17.283C21.066 18.243 21.03 19.805 20.886 20.645C20.585 21.726 19.984 21.99 18.959 21.99C18.298 21.99 16.013 22.002 15.472 21.954C14.907 21.904 14.273 21.485 14.105 20.585C13.912 19.144 14.033 17.823 14.177 17.282C14.32 16.842 14.686 16.29 15.535 16.202Z" stroke="white" stroke-width="1.5" stroke-linecap="round" stroke-linejoin="round"/>
</svg>
