<svg width="22" height="27" viewBox="0 0 22 27" fill="none" xmlns="http://www.w3.org/2000/svg">
<path fill-rule="evenodd" clip-rule="evenodd" d="M3.72569 3.93765C5.72152 1.94525 8.42844 0.825928 11.251 0.825928C14.0735 0.825928 16.7804 1.94525 18.7762 3.93765C20.7721 5.93005 21.8933 8.63232 21.8933 11.45C21.8933 14.2677 20.7721 16.97 18.7762 18.9624L11.251 26.4747L3.72569 18.9624C2.7374 17.9759 1.95343 16.8047 1.41856 15.5157C0.883693 14.2267 0.608398 12.8452 0.608398 11.45C0.608398 10.0548 0.883693 8.67328 1.41856 7.3843C1.95343 6.09532 2.7374 4.92415 3.72569 3.93765ZM11.251 14.4853C12.0574 14.4853 12.8307 14.1655 13.4009 13.5963C13.9711 13.027 14.2915 12.255 14.2915 11.45C14.2915 10.645 13.9711 9.87295 13.4009 9.30372C12.8307 8.73449 12.0574 8.41471 11.251 8.41471C10.4446 8.41471 9.6712 8.73449 9.101 9.30372C8.53079 9.87295 8.21045 10.645 8.21045 11.45C8.21045 12.255 8.53079 13.027 9.101 13.5963C9.6712 14.1655 10.4446 14.4853 11.251 14.4853Z" fill="white"/>
</svg>
