<svg width="31" height="31" viewBox="0 0 31 31" fill="none" xmlns="http://www.w3.org/2000/svg">
<path d="M29.4666 14.9302C29.4719 16.9704 28.9957 18.983 28.0766 20.804C26.9869 22.9862 25.3116 24.8217 23.2384 26.1048C21.1653 27.388 18.7761 28.0681 16.3386 28.069C14.3 28.0744 12.2891 27.5977 10.4695 26.6779L1.66602 29.6148L4.60052 20.804C3.68145 18.983 3.20518 16.9704 3.21049 14.9302C3.21144 12.4906 3.89101 10.0995 5.17309 8.02462C6.45517 5.94975 8.28913 4.27311 10.4695 3.18248C12.2891 2.26265 14.3 1.78598 16.3386 1.7913H17.1108C20.33 1.96905 23.3706 3.32896 25.6504 5.61063C27.9302 7.89231 29.289 10.9354 29.4666 14.1573V14.9302Z" fill="white" stroke="white" stroke-width="2" stroke-linecap="round" stroke-linejoin="round"/>
<g clip-path="url(#clip0_53_4472)">
<path d="M12.6514 15.0699C13.0015 15.0699 13.2853 14.7868 13.2853 14.4375C13.2853 14.0883 13.0015 13.8052 12.6514 13.8052C12.3014 13.8052 12.0176 14.0883 12.0176 14.4375C12.0176 14.7868 12.3014 15.0699 12.6514 15.0699Z" fill="white" stroke="white" stroke-width="1.6" stroke-linecap="round" stroke-linejoin="round"/>
<path d="M17.0831 15.0699C17.4331 15.0699 17.7169 14.7868 17.7169 14.4375C17.7169 14.0883 17.4331 13.8052 17.0831 13.8052C16.733 13.8052 16.4492 14.0883 16.4492 14.4375C16.4492 14.7868 16.733 15.0699 17.0831 15.0699Z" fill="white" stroke="white" stroke-width="1.6" stroke-linecap="round" stroke-linejoin="round"/>
<path d="M21.5186 15.0699C21.8687 15.0699 22.1524 14.7868 22.1524 14.4375C22.1524 14.0883 21.8687 13.8052 21.5186 13.8052C21.1685 13.8052 20.8848 14.0883 20.8848 14.4375C20.8848 14.7868 21.1685 15.0699 21.5186 15.0699Z" fill="white" stroke="white" stroke-width="1.6" stroke-linecap="round" stroke-linejoin="round"/>
</g>
<defs>
<clipPath id="clip0_53_4472">
<rect width="15.164" height="15.1765" fill="white" transform="translate(9.24805 6.8501)"/>
</clipPath>
</defs>
</svg>
