<svg width="25" height="25" viewBox="0 0 25 25" fill="none" xmlns="http://www.w3.org/2000/svg">
<g clip-path="url(#clip0_52_754)">
<g clip-path="url(#clip1_52_754)">
<path d="M24.4247 12.4497C24.4247 11.6597 24.3547 10.9097 24.2347 10.1797H12.9347V14.6897H19.4047C19.1147 16.1697 18.2647 17.4197 17.0047 18.2697V21.2697H20.8647C23.1247 19.1797 24.4247 16.0997 24.4247 12.4497Z" fill="#4285F4"/>
<path d="M12.9347 24.1797C16.1747 24.1797 18.8847 23.0997 20.8647 21.2697L17.0047 18.2697C15.9247 18.9897 14.5547 19.4297 12.9347 19.4297C9.80473 19.4297 7.15473 17.3197 6.20473 14.4697H2.22473V17.5597C4.19473 21.4797 8.24473 24.1797 12.9347 24.1797Z" fill="#34A853"/>
<path d="M6.20469 14.4698C5.95469 13.7498 5.82469 12.9798 5.82469 12.1798C5.82469 11.3798 5.96469 10.6098 6.20469 9.8898V6.7998H2.22469C1.40469 8.4198 0.934692 10.2398 0.934692 12.1798C0.934692 14.1198 1.40469 15.9398 2.22469 17.5598L6.20469 14.4698Z" fill="#FBBC05"/>
<path d="M12.9347 4.92969C14.7047 4.92969 16.2847 5.53969 17.5347 6.72969L20.9547 3.30969C18.8847 1.36969 16.1747 0.179688 12.9347 0.179688C8.24473 0.179688 4.19473 2.87969 2.22473 6.79969L6.20473 9.88969C7.15473 7.03969 9.80473 4.92969 12.9347 4.92969Z" fill="#EA4335"/>
</g>
</g>
<defs>
<clipPath id="clip0_52_754">
<rect width="24" height="24" fill="white" transform="translate(0.679688 0.179688)"/>
</clipPath>
<clipPath id="clip1_52_754">
<rect width="24" height="24" fill="white" transform="translate(0.679688 0.179688)"/>
</clipPath>
</defs>
</svg>
