<svg width="40" height="40" viewBox="0 0 40 40" fill="none" xmlns="http://www.w3.org/2000/svg">
<circle cx="20" cy="20" r="20" fill="white"/>
<path d="M29.8055 18.0415H29V18H20V22H25.6515C24.827 24.3285 22.6115 26 20 26C16.6865 26 14 23.3135 14 20C14 16.6865 16.6865 14 20 14C21.5295 14 22.921 14.577 23.9805 15.5195L26.809 12.691C25.023 11.0265 22.634 10 20 10C14.4775 10 10 14.4775 10 20C10 25.5225 14.4775 30 20 30C25.5225 30 30 25.5225 30 20C30 19.3295 29.931 18.675 29.8055 18.0415Z" fill="#FFC107"/>
<path d="M11.153 15.3455L14.4385 17.755C15.3275 15.554 17.4805 14 20 14C21.5295 14 22.921 14.577 23.9805 15.5195L26.809 12.691C25.023 11.0265 22.634 10 20 10C16.159 10 12.828 12.1685 11.153 15.3455Z" fill="#FF3D00"/>
<path d="M20 30.0001C22.583 30.0001 24.93 29.0116 26.7045 27.4041L23.6095 24.7851C22.5717 25.5743 21.3037 26.0011 20 26.0001C17.399 26.0001 15.1905 24.3416 14.3585 22.0271L11.0975 24.5396C12.7525 27.7781 16.1135 30.0001 20 30.0001Z" fill="#4CAF50"/>
<path d="M29.8055 18.0415H29V18H20V22H25.6515C25.2571 23.1082 24.5467 24.0766 23.608 24.7855L23.6095 24.7845L26.7045 27.4035C26.4855 27.6025 30 25 30 20C30 19.3295 29.931 18.675 29.8055 18.0415Z" fill="#1976D2"/>
</svg>
