<svg width="16" height="17" viewBox="0 0 16 17" fill="none" xmlns="http://www.w3.org/2000/svg">
<path fill-rule="evenodd" clip-rule="evenodd" d="M14.6668 8.49992C14.6668 12.1818 11.6821 15.1666 8.00016 15.1666C4.31826 15.1666 1.3335 12.1818 1.3335 8.49992C1.3335 4.81802 4.31826 1.83325 8.00016 1.83325C11.6821 1.83325 14.6668 4.81802 14.6668 8.49992ZM8.00016 7.83325C8.36835 7.83325 8.66683 8.13173 8.66683 8.49992V11.8338C8.66683 12.202 8.36835 12.5005 8.00016 12.5005C7.63197 12.5005 7.3335 12.202 7.3335 11.8338V8.49992C7.3335 8.13173 7.63197 7.83325 8.00016 7.83325ZM8.00016 6.49992C8.36835 6.49992 8.66683 6.20144 8.66683 5.83325C8.66683 5.46506 8.36835 5.16659 8.00016 5.16659C7.63197 5.16659 7.3335 5.46506 7.3335 5.83325C7.3335 6.20144 7.63197 6.49992 8.00016 6.49992Z" fill="#33383F"/>
</svg>
