<svg width="24" height="24" viewBox="0 0 24 24" fill="none" xmlns="http://www.w3.org/2000/svg">
<path d="M16.3333 20.6026L14.175 18.4006L13 19.5994L16.3333 23L23 16.1987L21.825 15L16.3333 20.6026Z" fill="#241353"/>
<path d="M11 13C12.1046 13 13 12.1046 13 11C13 9.89543 12.1046 9 11 9C9.89543 9 9 9.89543 9 11C9 12.1046 9.89543 13 11 13Z" fill="#241353"/>
<path d="M11 16C10.0111 16 9.0444 15.7068 8.22215 15.1573C7.3999 14.6079 6.75904 13.827 6.3806 12.9134C6.00217 11.9998 5.90315 10.9945 6.09608 10.0245C6.289 9.05465 6.76521 8.16373 7.46447 7.46447C8.16373 6.76521 9.05465 6.289 10.0245 6.09608C10.9945 5.90315 11.9998 6.00217 12.9134 6.3806C13.827 6.75904 14.6079 7.3999 15.1573 8.22215C15.7068 9.0444 16 10.0111 16 11C15.9985 12.3256 15.4712 13.5965 14.5338 14.5338C13.5965 15.4712 12.3256 15.9985 11 16ZM11 7.66667C10.3407 7.66667 9.69626 7.86217 9.1481 8.22844C8.59994 8.59471 8.17269 9.1153 7.9204 9.72439C7.66811 10.3335 7.6021 11.0037 7.73072 11.6503C7.85933 12.2969 8.1768 12.8908 8.64298 13.357C9.10915 13.8232 9.7031 14.1407 10.3497 14.2693C10.9963 14.3979 11.6665 14.3319 12.2756 14.0796C12.8847 13.8273 13.4053 13.4001 13.7716 12.8519C14.1378 12.3037 14.3333 11.6593 14.3333 11C14.3322 10.1163 13.9807 9.26908 13.3558 8.6442C12.7309 8.01931 11.8837 7.66777 11 7.66667Z" fill="#241353"/>
<path d="M21 11C21 9.02219 20.4135 7.08879 19.3147 5.4443C18.2159 3.79981 16.6541 2.51809 14.8268 1.76121C12.9996 1.00433 10.9889 0.8063 9.0491 1.19215C7.10929 1.578 5.32746 2.53041 3.92894 3.92894C2.53041 5.32746 1.578 7.10929 1.19215 9.0491C0.8063 10.9889 1.00433 12.9996 1.76121 14.8268C2.51809 16.6541 3.79981 18.2159 5.4443 19.3147C7.08879 20.4135 9.02219 21 11 21V19.3333C9.35182 19.3333 7.74066 18.8446 6.37025 17.9289C4.99984 17.0132 3.93174 15.7117 3.30101 14.189C2.67028 12.6663 2.50525 10.9908 2.82679 9.37425C3.14834 7.75774 3.94201 6.27288 5.10745 5.10745C6.27288 3.94201 7.75774 3.14834 9.37425 2.82679C10.9908 2.50525 12.6663 2.67028 14.189 3.30101C15.7117 3.93174 17.0132 4.99984 17.9289 6.37025C18.8446 7.74066 19.3333 9.35182 19.3333 11H21Z" fill="#241353"/>
</svg>
