<svg width="22" height="27" viewBox="0 0 22 27" fill="none" xmlns="http://www.w3.org/2000/svg">
<path fill-rule="evenodd" clip-rule="evenodd" d="M3.72557 3.93765C5.7214 1.94525 8.42832 0.825928 11.2508 0.825928C14.0734 0.825928 16.7803 1.94525 18.7761 3.93765C20.7719 5.93005 21.8932 8.63232 21.8932 11.45C21.8932 14.2677 20.7719 16.97 18.7761 18.9624L11.2508 26.4747L3.72557 18.9624C2.73727 17.9759 1.95331 16.8047 1.41844 15.5157C0.88357 14.2267 0.608276 12.8452 0.608276 11.45C0.608276 10.0548 0.88357 8.67328 1.41844 7.3843C1.95331 6.09532 2.73727 4.92415 3.72557 3.93765ZM11.2508 14.4853C12.0572 14.4853 12.8306 14.1655 13.4008 13.5963C13.971 13.027 14.2914 12.255 14.2914 11.45C14.2914 10.645 13.971 9.87295 13.4008 9.30372C12.8306 8.73449 12.0572 8.41471 11.2508 8.41471C10.4444 8.41471 9.67108 8.73449 9.10088 9.30372C8.53067 9.87295 8.21033 10.645 8.21033 11.45C8.21033 12.255 8.53067 13.027 9.10088 13.5963C9.67108 14.1655 10.4444 14.4853 11.2508 14.4853Z" fill="#241353"/>
</svg>
