<svg width="18" height="27" viewBox="0 0 18 27" fill="none" xmlns="http://www.w3.org/2000/svg">
<path fill-rule="evenodd" clip-rule="evenodd" d="M4.2964 0.0634669C4.10477 0.151848 3.93295 0.333767 3.86011 0.525379C3.82441 0.619278 3.80491 1.38805 3.80491 2.70144V4.73235L2.51516 4.74777C1.09612 4.76473 1.09839 4.76422 0.833243 5.11821C0.730287 5.25568 0.726562 5.32307 0.726562 7.0578C0.726562 8.79252 0.730287 8.85992 0.833243 8.99739C1.05892 9.29868 1.18562 9.35101 1.73465 9.36999L2.244 9.38757L2.26672 11.7677C2.28777 13.9707 2.29781 14.1853 2.4015 14.6503C2.71099 16.0387 3.31977 17.147 4.32124 18.1451C5.13496 18.9561 6.00021 19.4946 7.04705 19.8416C7.49654 19.9906 8.20678 20.1551 8.40023 20.1551C8.48311 20.1551 8.50903 20.2186 8.56325 20.5547C8.72617 21.5644 9.25053 22.7833 9.87965 23.6147C11.1045 25.2333 13.0112 26.2521 15.0478 26.3763C15.4958 26.4037 15.6113 26.3943 15.7729 26.3179C16.299 26.0691 16.3688 25.3268 15.8976 24.9924C15.774 24.9047 15.625 24.8725 15.1852 24.8384C13.1513 24.6809 11.4636 23.5729 10.6041 21.831C10.3775 21.3718 10.0651 20.4303 10.0651 20.2066C10.0651 20.1855 10.271 20.1307 10.5227 20.0848C11.8725 19.8387 13.0627 19.2196 14.0831 18.2329C15.2165 17.1369 15.9146 15.7982 16.1465 14.2768C16.2027 13.9084 16.2212 13.2417 16.2214 11.5873L16.2218 9.38757L16.7521 9.36999C17.2004 9.35514 17.3073 9.33462 17.4441 9.23742C17.765 9.0093 17.7739 8.95077 17.7739 7.0578C17.7739 5.16482 17.765 5.1063 17.4441 4.87818C17.2886 4.76762 17.2318 4.76257 15.976 4.74782L14.6697 4.73246V2.66726C14.6697 0.384712 14.6674 0.367077 14.3399 0.134265C14.2226 0.0508852 14.1045 0.0192763 13.9103 0.0192763C13.621 0.0192763 13.4454 0.11369 13.2501 0.374245C13.147 0.511766 13.1429 0.58772 13.1288 2.62698L13.1142 4.73741H9.23562H5.35701V2.66973C5.35701 0.392447 5.35365 0.366097 5.03547 0.140298C4.84441 0.00468361 4.50128 -0.0309988 4.2964 0.0634669ZM9.57973 9.46188C9.90122 9.61394 10.0826 10.0245 9.99021 10.3913C9.97024 10.4705 9.74637 10.7452 9.4867 11.0091L9.01916 11.4843L10.1599 12.0563C11.3395 12.6479 11.4845 12.7541 11.544 13.0702C11.6212 13.4802 11.5648 13.5687 10.6167 14.5247C10.1283 15.0173 9.66592 15.453 9.58909 15.4931C9.14617 15.7239 8.54799 15.3837 8.47762 14.8608C8.43929 14.5759 8.54835 14.3874 9.04662 13.8774C9.27509 13.6436 9.45219 13.4435 9.44019 13.4326C9.42819 13.4219 8.90239 13.1548 8.27177 12.8393C7.16222 12.2841 7.12171 12.2584 7.01715 12.0432C6.78552 11.5663 6.89262 11.3706 7.96192 10.3171C8.42719 9.85877 8.86373 9.46146 8.93203 9.43424C9.12263 9.35823 9.38416 9.36942 9.57973 9.46188Z" fill="white"/>
</svg>
