<svg width="31" height="31" viewBox="0 0 31 31" fill="none" xmlns="http://www.w3.org/2000/svg">
<path opacity="0.3" fill-rule="evenodd" clip-rule="evenodd" d="M10.6644 18.0428C10.2972 18.2369 10.2771 18.3088 10.2444 19.5481C10.2122 20.7708 10.1778 20.9242 9.86177 21.2573C9.64794 21.4827 9.22428 21.6853 8.96519 21.6859C8.54977 21.687 8.17479 21.9765 8.10467 22.3503C8.05341 22.6236 8.20541 22.9785 8.44285 23.1398C8.7927 23.3776 9.60369 23.2879 10.2737 22.9374C10.6637 22.7333 11.2263 22.183 11.4525 21.7843C11.7523 21.2556 11.8312 20.8079 11.8312 19.6355C11.8312 18.7025 11.8209 18.5833 11.7225 18.38C11.6435 18.2168 11.5521 18.1255 11.389 18.0465C11.1128 17.9128 10.9124 17.9118 10.6644 18.0428ZM13.1303 18.0574C12.7274 18.2883 12.7288 18.2795 12.7289 20.6032C12.729 22.9005 12.7301 22.9081 13.093 23.1506C13.469 23.4017 14.0155 23.2546 14.2203 22.847C14.3035 22.6814 14.3126 22.4591 14.3127 20.6032C14.3128 18.6985 14.3054 18.5294 14.2149 18.3593C14.0959 18.1357 13.7714 17.9395 13.5208 17.9395C13.4192 17.9395 13.2434 17.9925 13.1303 18.0574ZM15.6487 18.0475C15.4903 18.1259 15.396 18.2212 15.3187 18.381C15.2208 18.5831 15.2104 18.704 15.2104 19.6355C15.2104 20.8079 15.2893 21.2556 15.5891 21.7843C15.8153 22.183 16.3779 22.7333 16.7679 22.9374C17.4379 23.2879 18.2489 23.3776 18.5987 23.1398C18.8362 22.9785 18.9882 22.6236 18.9369 22.3503C18.8668 21.9765 18.4918 21.687 18.0764 21.6859C17.8173 21.6853 17.3937 21.4827 17.1798 21.2573C16.8638 20.9242 16.8294 20.7708 16.7972 19.5481C16.7643 18.3023 16.7446 18.2334 16.366 18.0402C16.1085 17.9089 15.925 17.9108 15.6487 18.0475Z" fill="white"/>
<path fill-rule="evenodd" clip-rule="evenodd" d="M2.6006 2.75515C2.44595 2.79259 2.11596 2.924 1.86727 3.04723C1.0783 3.43821 0.480984 4.13812 0.15458 5.05407L0.0322976 5.39727L0.0162467 9.70725C-0.00186337 14.5577 -0.00893845 14.45 0.380877 15.2443C0.79065 16.0792 1.61722 16.7589 2.53856 17.0185C2.71058 17.067 3.15715 17.1123 3.63414 17.1297L4.43933 17.1592L4.44012 16.0037C4.44102 14.6877 4.48764 14.395 4.79677 13.7659C5.08168 13.1861 5.68792 12.5875 6.28729 12.2941C7.08588 11.9032 6.7656 11.9198 13.5208 11.9198C20.2759 11.9198 19.9556 11.9032 20.7542 12.2941C21.3536 12.5875 21.9598 13.1861 22.2447 13.7659C22.5539 14.395 22.6005 14.6877 22.6014 16.0037L22.6022 17.1592L23.4074 17.1297C23.8844 17.1123 24.3309 17.067 24.503 17.0185C25.4243 16.7589 26.2509 16.0792 26.6606 15.2443C27.0504 14.45 27.0434 14.5577 27.0253 9.70725L27.0092 5.39727L26.8869 5.05407C26.551 4.11129 25.9562 3.4266 25.1278 3.02913C24.8567 2.89903 24.509 2.76687 24.3552 2.73535C23.9157 2.64543 2.97526 2.66449 2.6006 2.75515ZM19.2557 5.82293C19.6328 6.10483 19.7379 6.51154 19.528 6.87564C19.3251 7.2277 19.1613 7.27786 18.2727 7.26033C17.6032 7.24713 17.4895 7.23198 17.367 7.13963C16.992 6.85711 16.9309 6.3533 17.2262 5.97795C17.4237 5.72689 17.5934 5.68639 18.3878 5.70091C19.0228 5.71248 19.1277 5.72721 19.2557 5.82293ZM23.0235 5.78016C23.1246 5.8309 23.2633 5.95562 23.3318 6.05725C23.5016 6.30926 23.478 6.77917 23.2852 6.98551C23.0462 7.24138 22.9249 7.27163 22.1374 7.27163C21.4622 7.27163 21.3891 7.26202 21.224 7.15178C20.7176 6.81349 20.7622 6.06275 21.3046 5.79426C21.6018 5.64716 22.7402 5.63782 23.0235 5.78016ZM7.45473 13.559C6.93867 13.6604 6.38999 14.0966 6.1714 14.5794C6.05841 14.829 6.04848 14.9306 6.0328 15.9967L6.0159 17.145H13.5208H21.0256L21.0087 15.9967C20.993 14.9306 20.9831 14.829 20.8701 14.5794C20.7309 14.2719 20.3514 13.8781 20.0402 13.7184C19.9233 13.6584 19.7004 13.5851 19.5446 13.5556C19.1942 13.4892 7.79402 13.4924 7.45473 13.559Z" fill="white"/>
</svg>
