<svg width="29" height="29" viewBox="0 0 29 29" fill="none" xmlns="http://www.w3.org/2000/svg">
<path fill-rule="evenodd" clip-rule="evenodd" d="M3.84172 0.0948847C3.00712 0.260262 2.27479 0.905858 1.98031 1.7359C1.87563 2.0309 1.86333 2.21839 1.8418 3.84932C1.82688 4.97824 1.8408 5.80662 1.87947 6.09291C1.95977 6.68739 2.18442 7.16179 2.56366 7.5379C3.11257 8.0822 3.6952 8.29659 4.62569 8.29659H5.16196L5.17866 10.1677C5.1948 11.9831 5.19909 12.0464 5.32146 12.2938C5.9017 13.467 7.47775 13.5781 8.20796 12.4974C8.45576 12.1305 8.50635 11.7411 8.50635 10.1991C8.50635 8.90687 8.51008 8.8618 8.63267 8.67901C8.96467 8.18394 9.66182 8.18394 9.99382 8.67901C10.1022 8.84068 10.1201 8.93952 10.1201 9.37567C10.1201 10.2745 10.242 10.6975 10.6132 11.0872C11.455 11.9707 12.9151 11.6618 13.3556 10.507C13.4421 10.2802 13.459 10.077 13.459 9.26618V8.29659H17.3427C21.5989 8.29659 21.5838 8.29764 22.1648 7.965C22.5015 7.7723 22.9068 7.36498 23.1045 7.0207C23.3088 6.66494 23.4182 6.13732 23.4192 5.5032L23.42 4.95507L23.9437 4.9824C24.5164 5.01223 24.737 5.09899 24.9445 5.37602C25.054 5.52227 25.0627 5.61208 25.0776 6.76202C25.093 7.94981 25.0892 8.0001 24.9663 8.23988C24.8963 8.37642 24.7639 8.53077 24.6721 8.58294C24.5802 8.63511 22.3909 9.27738 19.8069 10.0102C17.2229 10.7429 14.9775 11.4086 14.817 11.4895C14.6566 11.5704 14.3965 11.7643 14.239 11.9204C13.6631 12.4911 13.4612 13.0569 13.4598 14.1039L13.459 14.7276H14.2891H15.1192L15.1377 14.0662C15.1576 13.3575 15.2021 13.2337 15.5214 12.9994C15.5961 12.9447 17.7731 12.2999 20.3593 11.5666C22.9456 10.8333 25.1955 10.1687 25.3593 10.0898C26.0229 9.76979 26.5817 8.9999 26.7013 8.24115C26.7702 7.80384 26.7738 6.02833 26.7068 5.51118C26.6166 4.8142 26.1946 4.14254 25.6007 3.75058C25.1852 3.47638 24.723 3.36245 24.0263 3.36245H23.42L23.4192 2.82191C23.4187 2.52464 23.3805 2.12137 23.3342 1.92589C23.147 1.1346 22.5089 0.442936 21.7029 0.157421C21.4674 0.0740393 20.6758 0.0651135 12.7634 0.0565758C7.98882 0.0514199 3.97405 0.0686617 3.84172 0.0948847Z" fill="white"/>
<path opacity="0.4" fill-rule="evenodd" clip-rule="evenodd" d="M10.4203 16.5253C10.209 16.617 10.1197 16.841 10.1231 17.2718C10.1285 17.9607 10.1479 17.9959 10.9772 18.8237L11.7349 19.58L11.2535 21.9352C10.8212 24.0504 10.7722 24.3527 10.7722 24.9004C10.7722 25.4183 10.795 25.5771 10.9235 25.9537C11.171 26.6793 11.5629 27.2425 12.113 27.6635C12.8027 28.1913 13.4048 28.3925 14.2943 28.3925C15.1838 28.3925 15.7859 28.1913 16.4756 27.6635C17.0309 27.2386 17.4434 26.6486 17.6711 25.9537C17.792 25.5847 17.8164 25.4078 17.8163 24.9004C17.8162 24.3531 17.7669 24.0492 17.3352 21.9366L16.8543 19.5828L17.6333 18.8L18.4122 18.0173V17.5069C18.4122 16.946 18.3344 16.6806 18.1275 16.5362C18.0108 16.4548 17.6306 16.446 14.2958 16.448C11.3057 16.4498 10.5604 16.4646 10.4203 16.5253Z" fill="white"/>
</svg>
