<svg width="91" height="16" viewBox="0 0 91 16" fill="none" xmlns="http://www.w3.org/2000/svg">
<g clip-path="url(#clip0_52_1372)">
<path d="M8.73709 0.829958L10.5343 4.48652C10.6593 4.74083 10.9009 4.91705 11.1805 4.95777L15.1994 5.54417C15.9034 5.64696 16.1842 6.51538 15.675 7.01367L12.767 9.85988C12.5649 10.0578 12.4725 10.3431 12.5203 10.6225L13.2067 14.6415C13.327 15.3454 12.5911 15.8821 11.9616 15.55L8.36714 13.6526C8.11718 13.5208 7.81837 13.5208 7.56841 13.6526L3.97398 15.55C3.34443 15.8824 2.60853 15.3454 2.72885 14.6415L3.41523 10.6225C3.4631 10.3431 3.37069 10.0578 3.1686 9.85988L0.260545 7.01367C-0.248672 6.51504 0.0321949 5.64663 0.736191 5.54417L4.75509 4.95777C5.03462 4.91705 5.27627 4.74083 5.40125 4.48652L7.19847 0.829958C7.5129 0.189493 8.42232 0.189493 8.73709 0.829958Z" fill="#241353"/>
</g>
<g clip-path="url(#clip1_52_1372)">
<path d="M46.2703 0.829958L48.0675 4.48652C48.1925 4.74083 48.4341 4.91705 48.7137 4.95777L52.7326 5.54417C53.4366 5.64696 53.7174 6.51538 53.2082 7.01367L50.3002 9.85988C50.0981 10.0578 50.0057 10.3431 50.0535 10.6225L50.7399 14.6415C50.8602 15.3454 50.1243 15.8821 49.4948 15.55L45.9003 13.6526C45.6504 13.5208 45.3516 13.5208 45.1016 13.6526L41.5072 15.55C40.8776 15.8824 40.1417 15.3454 40.2621 14.6415L40.9484 10.6225C40.9963 10.3431 40.9039 10.0578 40.7018 9.85988L37.7937 7.01367C37.2845 6.51504 37.5654 5.64663 38.2694 5.54417L42.2883 4.95777C42.5678 4.91705 42.8095 4.74083 42.9345 4.48652L44.7317 0.829958C45.0461 0.189493 45.9555 0.189493 46.2703 0.829958Z" fill="#241353"/>
</g>
<g clip-path="url(#clip2_52_1372)">
<path d="M27.5032 0.829958L29.3004 4.48652C29.4254 4.74083 29.667 4.91705 29.9466 4.95777L33.9655 5.54417C34.6695 5.64696 34.9503 6.51538 34.4411 7.01367L31.5331 9.85988C31.331 10.0578 31.2386 10.3431 31.2864 10.6225L31.9728 14.6415C32.0931 15.3454 31.3572 15.8821 30.7277 15.55L27.1333 13.6526C26.8833 13.5208 26.5845 13.5208 26.3345 13.6526L22.7401 15.55C22.1105 15.8824 21.3746 15.3454 21.495 14.6415L22.1813 10.6225C22.2292 10.3431 22.1368 10.0578 21.9347 9.85988L19.0267 7.01367C18.5174 6.51504 18.7983 5.64663 19.5023 5.54417L23.5212 4.95777C23.8007 4.91705 24.0424 4.74083 24.1674 4.48652L25.9646 0.829958C26.279 0.189493 27.1884 0.189493 27.5032 0.829958Z" fill="#241353"/>
</g>
<g clip-path="url(#clip3_52_1372)">
<path d="M65.0359 0.829958L66.8331 4.48652C66.9581 4.74083 67.1998 4.91705 67.4793 4.95777L71.4982 5.54417C72.2022 5.64696 72.4831 6.51538 71.9738 7.01367L69.0658 9.85988C68.8637 10.0578 68.7713 10.3431 68.8191 10.6225L69.5055 14.6415C69.6259 15.3454 68.8899 15.8821 68.2604 15.55L64.666 13.6526C64.416 13.5208 64.1172 13.5208 63.8672 13.6526L60.2728 15.55C59.6433 15.8824 58.9074 15.3454 59.0277 14.6415L59.7141 10.6225C59.7619 10.3431 59.6695 10.0578 59.4674 9.85988L56.5594 7.01367C56.0502 6.51504 56.331 5.64663 57.035 5.54417L61.0539 4.95777C61.3335 4.91705 61.5751 4.74083 61.7001 4.48652L63.4973 0.829958C63.8117 0.189493 64.7211 0.189493 65.0359 0.829958Z" fill="#241353"/>
</g>
<g clip-path="url(#clip4_52_1372)">
<path d="M83.8025 0.829958L85.5997 4.48652C85.7247 4.74083 85.9664 4.91705 86.2459 4.95777L90.2648 5.54417C90.9688 5.64696 91.2497 6.51538 90.7404 7.01367L87.8324 9.85988C87.6303 10.0578 87.5379 10.3431 87.5857 10.6225L88.2721 14.6415C88.3925 15.3454 87.6565 15.8821 87.027 15.55L83.4326 13.6526C83.1826 13.5208 82.8838 13.5208 82.6338 13.6526L79.0394 15.55C78.4099 15.8824 77.674 15.3454 77.7943 14.6415L78.4807 10.6225C78.5285 10.3431 78.4361 10.0578 78.234 9.85988L75.326 7.01367C74.8168 6.51504 75.0976 5.64663 75.8016 5.54417L79.8205 4.95777C80.1001 4.91705 80.3417 4.74083 80.4667 4.48652L82.2639 0.829958C82.5783 0.189493 83.4877 0.189493 83.8025 0.829958Z" fill="#241353"/>
</g>
<defs>
<clipPath id="clip0_52_1372">
<rect width="15.9346" height="15.9999" fill="white"/>
</clipPath>
<clipPath id="clip1_52_1372">
<rect width="15.9346" height="15.9999" fill="white" transform="translate(37.5332)"/>
</clipPath>
<clipPath id="clip2_52_1372">
<rect width="15.9346" height="15.9999" fill="white" transform="translate(18.7661)"/>
</clipPath>
<clipPath id="clip3_52_1372">
<rect width="15.9346" height="15.9999" fill="white" transform="translate(56.2988)"/>
</clipPath>
<clipPath id="clip4_52_1372">
<rect width="15.9346" height="15.9999" fill="white" transform="translate(75.0654)"/>
</clipPath>
</defs>
</svg>
