<svg width="68" height="12" viewBox="0 0 68 12" fill="none" xmlns="http://www.w3.org/2000/svg">
<path d="M5.52229 1.54591C5.66748 1.07607 6.33252 1.07607 6.47771 1.54591L7.30752 4.23121C7.37226 4.44072 7.56595 4.58359 7.78523 4.58359H10.5219C11.0001 4.58359 11.2054 5.19058 10.8254 5.48092L8.56895 7.20468C8.40244 7.33189 8.3329 7.54943 8.39477 7.74963L9.24635 10.5054C9.39008 10.9705 8.85195 11.3459 8.46511 11.0504L6.30353 9.39906C6.12433 9.26216 5.87567 9.26217 5.69647 9.39906L3.53489 11.0504C3.14805 11.3459 2.60992 10.9705 2.75365 10.5054L3.60523 7.74963C3.6671 7.54943 3.59757 7.33189 3.43105 7.20468L1.17462 5.48092C0.79456 5.19058 0.999881 4.58359 1.47815 4.58359H4.21477C4.43405 4.58359 4.62774 4.44072 4.69248 4.23121L5.52229 1.54591Z" fill="#241353"/>
<path d="M19.5223 1.54591C19.6675 1.07607 20.3325 1.07607 20.4777 1.54591L21.3075 4.23121C21.3723 4.44072 21.5659 4.58359 21.7852 4.58359H24.5219C25.0001 4.58359 25.2054 5.19058 24.8254 5.48092L22.5689 7.20468C22.4024 7.33189 22.3329 7.54943 22.3948 7.74963L23.2464 10.5054C23.3901 10.9705 22.852 11.3459 22.4651 11.0504L20.3035 9.39906C20.1243 9.26216 19.8757 9.26217 19.6965 9.39906L17.5349 11.0504C17.148 11.3459 16.6099 10.9705 16.7536 10.5054L17.6052 7.74963C17.6671 7.54943 17.5976 7.33189 17.4311 7.20468L15.1746 5.48092C14.7946 5.19058 14.9999 4.58359 15.4781 4.58359H18.2148C18.4341 4.58359 18.6277 4.44072 18.6925 4.23121L19.5223 1.54591Z" fill="#241353"/>
<path d="M33.5223 1.54591C33.6675 1.07607 34.3325 1.07607 34.4777 1.54591L35.3075 4.23121C35.3723 4.44072 35.5659 4.58359 35.7852 4.58359H38.5219C39.0001 4.58359 39.2054 5.19058 38.8254 5.48092L36.5689 7.20468C36.4024 7.33189 36.3329 7.54943 36.3948 7.74963L37.2464 10.5054C37.3901 10.9705 36.852 11.3459 36.4651 11.0504L34.3035 9.39906C34.1243 9.26216 33.8757 9.26217 33.6965 9.39906L31.5349 11.0504C31.148 11.3459 30.6099 10.9705 30.7536 10.5054L31.6052 7.74963C31.6671 7.54943 31.5976 7.33189 31.4311 7.20468L29.1746 5.48092C28.7946 5.19058 28.9999 4.58359 29.4781 4.58359H32.2148C32.4341 4.58359 32.6277 4.44072 32.6925 4.23121L33.5223 1.54591Z" fill="#241353"/>
<path d="M47.5223 1.54591C47.6675 1.07607 48.3325 1.07607 48.4777 1.54591L49.3075 4.23121C49.3723 4.44072 49.5659 4.58359 49.7852 4.58359H52.5219C53.0001 4.58359 53.2054 5.19058 52.8254 5.48092L50.5689 7.20468C50.4024 7.33189 50.3329 7.54943 50.3948 7.74963L51.2464 10.5054C51.3901 10.9705 50.852 11.3459 50.4651 11.0504L48.3035 9.39906C48.1243 9.26216 47.8757 9.26217 47.6965 9.39906L45.5349 11.0504C45.148 11.3459 44.6099 10.9705 44.7536 10.5054L45.6052 7.74963C45.6671 7.54943 45.5976 7.33189 45.4311 7.20468L43.1746 5.48092C42.7946 5.19058 42.9999 4.58359 43.4781 4.58359H46.2148C46.4341 4.58359 46.6277 4.44072 46.6925 4.23121L47.5223 1.54591Z" fill="#241353"/>
<path d="M61.5223 1.54591C61.6675 1.07607 62.3325 1.07607 62.4777 1.54591L63.3075 4.23121C63.3723 4.44072 63.5659 4.58359 63.7852 4.58359H66.5219C67.0001 4.58359 67.2054 5.19058 66.8254 5.48092L64.5689 7.20468C64.4024 7.33189 64.3329 7.54943 64.3948 7.74963L65.2464 10.5054C65.3901 10.9705 64.852 11.3459 64.4651 11.0504L62.3035 9.39906C62.1243 9.26216 61.8757 9.26217 61.6965 9.39906L59.5349 11.0504C59.148 11.3459 58.6099 10.9705 58.7536 10.5054L59.6052 7.74963C59.6671 7.54943 59.5976 7.33189 59.4311 7.20468L57.1746 5.48092C56.7946 5.19058 56.9999 4.58359 57.4781 4.58359H60.2148C60.4341 4.58359 60.6277 4.44072 60.6925 4.23121L61.5223 1.54591Z" fill="#241353"/>
<mask id="mask0_52_2384" style="mask-type:alpha" maskUnits="userSpaceOnUse" x="56" y="1" width="12" height="11">
<path d="M61.5223 1.54591C61.6675 1.07607 62.3325 1.07607 62.4777 1.54591L63.3075 4.23121C63.3723 4.44072 63.5659 4.58359 63.7852 4.58359H66.5219C67.0001 4.58359 67.2054 5.19058 66.8254 5.48092L64.5689 7.20468C64.4024 7.33189 64.3329 7.54943 64.3948 7.74963L65.2464 10.5054C65.3901 10.9705 64.852 11.3459 64.4651 11.0504L62.3035 9.39906C62.1243 9.26216 61.8757 9.26217 61.6965 9.39906L59.5349 11.0504C59.148 11.3459 58.6099 10.9705 58.7536 10.5054L59.6052 7.74963C59.6671 7.54943 59.5976 7.33189 59.4311 7.20468L57.1746 5.48092C56.7946 5.19058 56.9999 4.58359 57.4781 4.58359H60.2148C60.4341 4.58359 60.6277 4.44072 60.6925 4.23121L61.5223 1.54591Z" fill="#565656"/>
</mask>
<g mask="url(#mask0_52_2384)">
<rect x="61" y="-1" width="6" height="13" fill="#D9D9D9"/>
</g>
</svg>
