<svg width="18" height="14" viewBox="0 0 18 14" fill="none" xmlns="http://www.w3.org/2000/svg">
<path d="M9.83358 3.875V1.33333C9.83358 1.11232 9.92138 0.900358 10.0777 0.744078C10.2339 0.587797 10.4459 0.5 10.6669 0.5C10.8855 0.500921 11.095 0.587713 11.2502 0.741667L17.0836 6.575C17.1617 6.65247 17.2237 6.74464 17.266 6.84619C17.3083 6.94774 17.3301 7.05666 17.3301 7.16667C17.3301 7.27668 17.3083 7.3856 17.266 7.48715C17.2237 7.5887 17.1617 7.68086 17.0836 7.75833L11.2502 13.5917C11.1333 13.7063 10.9851 13.784 10.8242 13.8149C10.6633 13.8458 10.4969 13.8286 10.3458 13.7655C10.1946 13.7024 10.0654 13.5961 9.97429 13.4599C9.8832 13.3238 9.83426 13.1638 9.83358 13V10.4167H9.12525C7.80865 10.397 6.50354 10.6641 5.30052 11.1995C4.0975 11.7348 3.02538 12.5255 2.15858 13.5167C2.05412 13.6557 1.90876 13.7586 1.74288 13.8109C1.577 13.8632 1.39892 13.8623 1.23358 13.8083C1.06532 13.7516 0.919607 13.6425 0.817673 13.4971C0.715738 13.3517 0.662918 13.1775 0.666914 13C0.666914 5.4 7.40025 4.1 9.83358 3.875ZM9.12525 8.73333C9.68262 8.73159 10.2395 8.76778 10.7919 8.84167C10.9892 8.8716 11.1692 8.97132 11.2992 9.12272C11.4292 9.27411 11.5005 9.46713 11.5002 9.66667V10.9917L15.3169 7.16667L11.5002 3.34167V4.66667C11.5002 4.88768 11.4124 5.09964 11.2562 5.25592C11.0999 5.4122 10.8879 5.5 10.6669 5.5C9.90858 5.5 3.90858 5.66667 2.60858 10.8583C4.4955 9.46713 6.78094 8.72188 9.12525 8.73333Z" fill="#808080"/>
</svg>
