<svg width="18" height="18" viewBox="0 0 18 18" fill="none" xmlns="http://www.w3.org/2000/svg">
<path d="M7.89444 1.9648L8.63148 2.19255L7.89444 1.9648L6.54242 6.34003H2.14029C1.03344 6.34003 0.558272 7.74478 1.43783 8.4167L5.04836 11.1749L3.67497 15.6193C3.34235 16.6957 4.58773 17.5644 5.48299 16.8804L5.01469 16.2674L5.48299 16.8804L9 14.1937L12.517 16.8804C13.4123 17.5644 14.6577 16.6957 14.325 15.6193L12.9516 11.1749L16.5622 8.4167C17.4417 7.74477 16.9666 6.34003 15.8597 6.34003H11.4576L10.1056 1.9648C9.76956 0.877463 8.23045 0.87745 7.89444 1.9648ZM8.76585 14.0148L8.76622 14.0151L8.76585 14.0148Z" fill="#241353" stroke="white" stroke-width="1.54286"/>
</svg>
