<svg width="50" height="18" viewBox="0 0 50 18" fill="none" xmlns="http://www.w3.org/2000/svg">
<path fill-rule="evenodd" clip-rule="evenodd" d="M32.5762 0C34.132 0 35.3789 0.359288 36.174 0.693381L35.6306 4.26681L35.271 4.07674C34.5303 3.74265 33.5789 3.42112 32.2665 3.44391C30.6955 3.44391 29.9692 4.17659 29.9692 4.86209C29.9601 5.63446 30.8179 6.14385 32.2206 6.90667C34.5358 8.08358 35.6058 9.51058 35.5907 11.3865C35.5595 14.8094 32.8212 17.0213 28.6028 17.0213C26.8031 17.0006 25.0693 16.6022 24.132 16.142L24.6954 12.4495L25.2128 12.7127C26.5307 13.3283 27.3841 13.5774 28.9903 13.5774C30.1438 13.5774 31.3817 13.0724 31.3916 11.9671C31.3991 11.2453 30.8741 10.7307 29.312 9.92246C27.7898 9.13358 25.7717 7.81211 25.7941 5.44265C25.8179 2.23733 28.6109 0 32.5762 0ZM0.049926 0.524229H6.52842C7.40082 0.558714 8.10515 0.852374 8.34832 1.84209L9.74472 9.37738L9.74471 9.37926C9.74465 9.38017 9.74458 9.38113 9.74472 9.38152L10.1642 11.6392L14.0976 0.524229H18.3527L12.028 16.7936L7.77696 16.7978L4.39292 3.66947C6.40645 4.78469 8.12068 6.07502 9.11345 7.85067C8.85749 7.28882 8.52022 6.65458 8.08866 6.0295C7.61098 5.33765 6.60682 4.45435 6.11895 4.02519L6.047 3.96186C4.46611 2.56862 2.31916 1.44337 0 0.847963L0.049926 0.524229ZM24.2056 0.543015H20.0444L17.4414 16.7874H21.6025L24.2056 0.543015ZM43.5479 0.543015H46.7003L50.0005 16.7874H46.2168C46.2168 16.7874 45.8414 14.9212 45.7194 14.3522C45.4043 14.3522 44.0882 14.3504 42.8508 14.3488L42.8493 14.3488C41.7522 14.3473 40.7173 14.3459 40.4974 14.3459C40.3391 14.7857 39.6385 16.7873 39.6385 16.7873H35.3574L41.4124 1.89222C41.8411 0.833733 42.5718 0.543015 43.5479 0.543015ZM43.4889 5.96333C43.6028 5.64332 43.7508 5.22722 43.8576 4.91214V4.91227L44.1312 6.29904C44.1312 6.29904 44.9079 10.1403 45.0701 10.9458L41.7041 10.9479C42.0393 10.0208 43.3201 6.44927 43.3201 6.44927C43.3087 6.46977 43.3844 6.25701 43.4889 5.96333Z" fill="white"/>
</svg>
